<!-- Generator: Adobe Illustrator 22.1.0, SVG Export Plug-In  -->
<svg version="1.1"
	 xmlns="http://www.w3.org/2000/svg" xmlns:xlink="http://www.w3.org/1999/xlink" xmlns:a="http://ns.adobe.com/AdobeSVGViewerExtensions/3.0/"
	 x="0px" y="0px" width="14px" height="16px" viewBox="0 0 14 16" style="enable-background:new 0 0 14 16;" xml:space="preserve">
<style type="text/css">
	.st0{fill:#888888;}
</style>
<defs>
</defs>
<path class="st0" d="M14,14.5c0,0.8-0.7,1.5-1.5,1.5h-11C0.7,16,0,15.3,0,14.5v-11C0,2.7,0.7,2,1.5,2H3V0.4C3,0.2,3.2,0,3.4,0h1.3
	C4.8,0,5,0.2,5,0.4V2h4V0.4C9,0.2,9.2,0,9.4,0h1.3C10.8,0,11,0.2,11,0.4V2h1.5C13.3,2,14,2.7,14,3.5V14.5z M12.5,5h-11v9.3
	c0,0.1,0.1,0.2,0.2,0.2h10.6c0.1,0,0.2-0.1,0.2-0.2V5z M3.4,9C3.2,9,3,8.8,3,8.6V7.4C3,7.2,3.2,7,3.4,7h1.3C4.8,7,5,7.2,5,7.4v1.3
	C5,8.8,4.8,9,4.6,9H3.4z M4.6,12H3.4C3.2,12,3,11.8,3,11.6v-1.3C3,10.2,3.2,10,3.4,10h1.3C4.8,10,5,10.2,5,10.4v1.3
	C5,11.8,4.8,12,4.6,12z M7.6,9H6.4C6.2,9,6,8.8,6,8.6V7.4C6,7.2,6.2,7,6.4,7h1.3C7.8,7,8,7.2,8,7.4v1.3C8,8.8,7.8,9,7.6,9z M7.6,12
	H6.4C6.2,12,6,11.8,6,11.6v-1.3C6,10.2,6.2,10,6.4,10h1.3C7.8,10,8,10.2,8,10.4v1.3C8,11.8,7.8,12,7.6,12z M10.6,9H9.4
	C9.2,9,9,8.8,9,8.6V7.4C9,7.2,9.2,7,9.4,7h1.3C10.8,7,11,7.2,11,7.4v1.3C11,8.8,10.8,9,10.6,9z M10.6,12H9.4C9.2,12,9,11.8,9,11.6
	v-1.3C9,10.2,9.2,10,9.4,10h1.3c0.2,0,0.4,0.2,0.4,0.4v1.3C11,11.8,10.8,12,10.6,12z"/>
</svg>
