<svg xmlns="http://www.w3.org/2000/svg" xmlns:xlink="http://www.w3.org/1999/xlink" viewBox="0 0 141.93 90.99"><defs><style>.cls-1{fill:none;}.cls-2,.cls-4{fill:#4f16cc;}.cls-3{fill:#ff9c36;}.cls-4{fill-rule:evenodd;}.cls-5{fill:#4e81ee;}.cls-6{clip-path:url(#clip-path);}.cls-7{fill:url(#linear-gradient);}</style><clipPath id="clip-path"><path class="cls-1" d="M57.53,22.86c-.48.16-1,.34-1.43.53V37.93a13.39,13.39,0,0,1,7.42-3.81,12.82,12.82,0,0,1,9.48,2,13.23,13.23,0,0,1,6.18,9.2v0a15.51,15.51,0,0,1,.21,2.39,28.05,28.05,0,0,0,.6,5.38V25.77a25.85,25.85,0,0,0-5.25-2.65,22.49,22.49,0,0,0-6.48-1.49l-.54,0c-.59,0-1.18-.06-1.77-.07h-.2a25.74,25.74,0,0,0-8.22,1.34"/></clipPath><linearGradient id="linear-gradient" x1="-116.68" y1="92.38" x2="-115.68" y2="92.38" gradientTransform="matrix(23.9, 0, 0, -23.9, 2844.05, 2244.66)" gradientUnits="userSpaceOnUse"><stop offset="0" stop-color="#ff9c36"/><stop offset="0.56" stop-color="#ff9c36"/><stop offset="1" stop-color="#c27729"/></linearGradient></defs><title>logo</title><g id="Layer_2" data-name="Layer 2"><g id="Layer_1-2" data-name="Layer 1"><path class="cls-2" d="M105.45,21.64l-.1,11V34h-.46l-4.81,0L95.5,33.9l-3,0c-.77,0-.77,0-.78.76,0,.57,0,1.14,0,1.82-.88-1.57-1.65-3-2.51-4.42a23.21,23.21,0,0,0-2-2.72L86.93,29a29.86,29.86,0,0,0-3.87-3.75A26.58,26.58,0,0,0,80,23.23l-.55-.31s0-.54,0-.74c0-.83,0-1.81,0-2.88s0-2,0-3.1c0-5.28.07-11.63.09-15.25V0h.29a4.46,4.46,0,0,1,.71.06A12.43,12.43,0,0,1,91.2,8.56a.89.89,0,0,1,.07.19c.08.32.21.82.32,1.41a13.94,13.94,0,0,1,.22,2.65v0c0,.4,0,3,0,5,0,1.25,0,2.31,0,2.55v.67c0,.31.23.43.65.43h2.23l6.59.06Z"/><path class="cls-3" d="M141.93,72.56v1H130.38a26,26,0,0,1-26-25.34,26.19,26.19,0,0,1,2.42-11.64,26,26,0,0,1,23.6-15.07h11.07v1.62a10.93,10.93,0,0,1-10.93,10.93,13.67,13.67,0,0,0-9.47,3.8,13.34,13.34,0,0,0-4.14,9.29A13.49,13.49,0,0,0,130.38,61a11.92,11.92,0,0,1,2.08.19,11.43,11.43,0,0,1,2.73.86,11.56,11.56,0,0,1,6.74,10.51"/><path class="cls-3" d="M119.13,73.55H105.41c-.67,0-1.32,0-2,0-.16,0-1.36-.14-1.81-.21A26,26,0,0,1,80,53.09a28.14,28.14,0,0,1-.6-5.38,15.51,15.51,0,0,0-.21-2.39v0A13.23,13.23,0,0,0,73,36.07a12.83,12.83,0,0,0-9.49-2,13.4,13.4,0,0,0-7.41,3.81,14.58,14.58,0,0,0-2.74,4,13.26,13.26,0,0,0-1.25,5.7c0,8.36,0,25.62,0,25.9a8.52,8.52,0,0,1-3.47-.45,11.88,11.88,0,0,1-5-2.91,12.44,12.44,0,0,1-3.37-5.52,15.56,15.56,0,0,1-.5-4.45c0-4.32,0-8.64,0-13A13.62,13.62,0,0,0,31,34.84a13.3,13.3,0,0,0-7.82-.56,13.57,13.57,0,0,0-6.58,3.58,13.86,13.86,0,0,0-3.07,4.54,14.8,14.8,0,0,0-1,5.86l0,8.33h0q0,8.22,0,16.46c0,.44-.15.56-.58.53A12.44,12.44,0,0,1,0,61C0,56.39,0,51.74.05,47.1a37.33,37.33,0,0,1,.6-4.92,20.71,20.71,0,0,1,2-6,26,26,0,0,1,8.24-9.79,24.88,24.88,0,0,1,7.48-3.74,26.43,26.43,0,0,1,7.91-1.15,25.87,25.87,0,0,1,17.64,7.11c.55.53,1.09,1.08,1.6,1.65.29.33.45.33.76,0a25.55,25.55,0,0,1,5.05-4.4,26.48,26.48,0,0,1,4.75-2.48c.47-.19.95-.37,1.43-.53a25.78,25.78,0,0,1,8.41-1.34h0c.59,0,1.18,0,1.77.07l.54,0q.61.06,1.23.15h0a26.1,26.1,0,0,1,16,8.8,26.07,26.07,0,0,1,4.8,8.25,28.13,28.13,0,0,1,1.54,8.65,13.25,13.25,0,0,0,.08,1.73,15.44,15.44,0,0,0,1.78,5.27,13.72,13.72,0,0,0,6.42,5.62A14.13,14.13,0,0,0,105,61.19h.58a28.48,28.48,0,0,0,13.59,12.36"/><path class="cls-3" d="M.33,87.22l.92-.32a.6.6,0,0,0,.22-.16.37.37,0,0,0,.09-.25V79.13a.39.39,0,0,0-.09-.26.44.44,0,0,0-.22-.14l-.92-.28V78H4.05l2,5.49.46,1.39h0L9,78h3.7v.46l-.92.28a.51.51,0,0,0-.23.15.37.37,0,0,0-.09.25v7.4a.4.4,0,0,0,.09.27.59.59,0,0,0,.23.14l.92.28v.46H8.14v-.46l.91-.28a.51.51,0,0,0,.23-.15.37.37,0,0,0,.09-.26V79.46h0l-.41,1.25L7,86.09l-.72,1.59H5.46l-2.5-7-.43-1.27h0v7a.37.37,0,0,0,.09.26.76.76,0,0,0,.23.15l.92.32v.46H.33Z"/><path class="cls-3" d="M15.57,91l-.46,0-.4-.07-.35-.09-.25-.1.3-1.51h.23l.18.09.25.08.26.08.26.07.23,0,.16,0h.16l.16,0,.16,0a.23.23,0,0,0,.12-.06,1.49,1.49,0,0,0,.29-.25,1.44,1.44,0,0,0,.21-.3c.06-.12.12-.27.19-.45s.16-.42.27-.69l-.73-1-2.14-4.93a.52.52,0,0,0-.18-.23,2,2,0,0,0-.3-.16l-.5-.2v-.44h3.84v.44l-1,.28L18,85.05l.29.71h0l1.5-4.18-.93-.35v-.44h2.72v.44l-.51.26c-.11.07-.21.12-.29.18a.37.37,0,0,0-.18.21L18,89A5.07,5.07,0,0,1,17.44,90a2.5,2.5,0,0,1-.58.62,1.61,1.61,0,0,1-.63.28A3,3,0,0,1,15.57,91Z"/><path class="cls-3" d="M29.47,87.23,30.52,87a.46.46,0,0,0,.23-.15.45.45,0,0,0,.08-.26V78.83h-2a.24.24,0,0,0-.2.07.55.55,0,0,0-.1.17L28,80.62H27.4V78h8.92v2.63h-.54l-.54-1.55a.55.55,0,0,0-.1-.17.24.24,0,0,0-.19-.07H32.88v7.71a.4.4,0,0,0,.09.27.55.55,0,0,0,.23.14l1,.28v.45H29.47Z"/><path class="cls-3" d="M37.39,87.24l.74-.25a.41.41,0,0,0,.21-.14.33.33,0,0,0,.09-.25V82.33a.58.58,0,0,0,0-.19.27.27,0,0,0-.07-.14.68.68,0,0,0-.12-.12L38,81.79l-.69-.24v-.38l2.94-.52v1.54h0c.12-.2.25-.4.39-.59a2.74,2.74,0,0,1,.45-.51,2,2,0,0,1,.54-.36,1.52,1.52,0,0,1,.69-.14h.35l.28.05.25.08.24.09V83h-.71l-.29-.53a.3.3,0,0,0-.11-.12l-.17-.1L42,82.13l-.22,0-.38,0a1.61,1.61,0,0,0-.36.1,1.28,1.28,0,0,0-.34.19,2.15,2.15,0,0,0-.33.34V86.6a.4.4,0,0,0,.08.26.41.41,0,0,0,.23.13l.88.25v.44H37.39Z"/><path class="cls-3" d="M45.09,87.24l.77-.25a.53.53,0,0,0,.23-.14.41.41,0,0,0,.08-.25V82.29a.46.46,0,0,0-.09-.29.73.73,0,0,0-.32-.2l-.64-.24v-.38l3-.49V86.6a.35.35,0,0,0,.09.25.6.6,0,0,0,.22.14l.72.25v.44h-4Zm2-7.88a1.18,1.18,0,0,1-.46-.09,1.36,1.36,0,0,1-.38-.24,1.38,1.38,0,0,1-.26-.36,1.14,1.14,0,0,1-.09-.46,1.07,1.07,0,0,1,.09-.43,1,1,0,0,1,.26-.36,1,1,0,0,1,.37-.23,1.23,1.23,0,0,1,.47-.09,1.28,1.28,0,0,1,.48.09,1.09,1.09,0,0,1,.39.23,1.14,1.14,0,0,1,.26.35,1,1,0,0,1,.09.44,1.13,1.13,0,0,1-.09.45,1.19,1.19,0,0,1-.26.36,1.28,1.28,0,0,1-.4.25A1.19,1.19,0,0,1,47.05,79.36Z"/><path class="cls-3" d="M50.57,90.55l.73-.25a.53.53,0,0,0,.23-.14.36.36,0,0,0,.07-.24V82.27a.52.52,0,0,0-.08-.29.73.73,0,0,0-.32-.2l-.62-.23v-.38l2.89-.52v1.14h0a2.82,2.82,0,0,1,.64-.68,2.68,2.68,0,0,1,.62-.36,2,2,0,0,1,.55-.14l.43,0a2.44,2.44,0,0,1,1.13.25,2.58,2.58,0,0,1,.84.7,3.18,3.18,0,0,1,.52,1.06,4.72,4.72,0,0,1,.18,1.34,4.9,4.9,0,0,1-.22,1.5,3.75,3.75,0,0,1-.62,1.23,3,3,0,0,1-1,.82,2.86,2.86,0,0,1-1.35.31,2.32,2.32,0,0,1-.55-.06,2.76,2.76,0,0,1-.46-.15,2.4,2.4,0,0,1-.38-.23,3.74,3.74,0,0,1-.29-.25v2.81a.41.41,0,0,0,.08.25.44.44,0,0,0,.23.13l.92.25V91H50.57Zm4.16-3.67a1.39,1.39,0,0,0,.75-.19,1.52,1.52,0,0,0,.51-.53,3,3,0,0,0,.3-.78,4.89,4.89,0,0,0,.09-1,6,6,0,0,0-.09-1.08,2.7,2.7,0,0,0-.28-.83A1.43,1.43,0,0,0,55.5,82a1.39,1.39,0,0,0-.75-.19h-.29a1.37,1.37,0,0,0-.34.07,1.15,1.15,0,0,0-.33.17.81.81,0,0,0-.26.31v4.24a.82.82,0,0,0,.25.14l.32.1.34,0A1.57,1.57,0,0,0,54.73,86.88Z"/><path class="cls-3" d="M69.6,87.88a5,5,0,0,1-1.94-.35,4,4,0,0,1-1.48-1,4.39,4.39,0,0,1-1-1.58,6.25,6.25,0,0,1-.33-2.1,6,6,0,0,1,.17-1.43,4.74,4.74,0,0,1,.46-1.23,4.14,4.14,0,0,1,.73-1,4.24,4.24,0,0,1,.94-.76A4.52,4.52,0,0,1,68.33,78a4.93,4.93,0,0,1,1.28-.16,8,8,0,0,1,.8,0c.3,0,.59.07.89.12s.57.11.84.18.49.13.68.19v2.42h-.55l-.49-1.24a.52.52,0,0,0-.13-.18.66.66,0,0,0-.17-.12,4.18,4.18,0,0,0-.87-.38,3.26,3.26,0,0,0-1-.13,2.14,2.14,0,0,0-1,.25,2.39,2.39,0,0,0-.81.75,4.06,4.06,0,0,0-.51,1.23,7.12,7.12,0,0,0-.18,1.69,6.63,6.63,0,0,0,.2,1.75,3.51,3.51,0,0,0,.61,1.29,2.64,2.64,0,0,0,1,.8,3.32,3.32,0,0,0,1.37.27,3.28,3.28,0,0,0,1.59-.4,2.44,2.44,0,0,0,.54-.37c.16-.13.31-.25.44-.37h.34v.8a7.32,7.32,0,0,1-.69.5,5.46,5.46,0,0,1-.86.48,6.5,6.5,0,0,1-1,.37A4.21,4.21,0,0,1,69.6,87.88Z"/><path class="cls-3" d="M76.62,87.82a1.78,1.78,0,0,1-.78-.16,1.81,1.81,0,0,1-.6-.42,2,2,0,0,1-.38-.61,1.9,1.9,0,0,1-.13-.71,2,2,0,0,1,.15-.79,2.08,2.08,0,0,1,.4-.61,2.9,2.9,0,0,1,.58-.45,3.93,3.93,0,0,1,.7-.31,4.62,4.62,0,0,1,.71-.18,5.59,5.59,0,0,1,.68,0h.2l.26,0,.26,0h.19v-1a3,3,0,0,0,0-.57.76.76,0,0,0-.15-.35.5.5,0,0,0-.27-.18,1.27,1.27,0,0,0-.43-.06,1.71,1.71,0,0,0-.59.13,6.11,6.11,0,0,0-.63.31c-.2.12-.4.25-.58.38l-.48.34h-.26l-.25-1.44.56-.21a5.35,5.35,0,0,1,.64-.2,5.7,5.7,0,0,1,.74-.14,5.39,5.39,0,0,1,.82,0,4.4,4.4,0,0,1,1,.11,2.51,2.51,0,0,1,.92.37,2,2,0,0,1,.66.69,2.09,2.09,0,0,1,.25,1.07l0,3.5a.59.59,0,0,0,0,.2.49.49,0,0,0,.11.14.4.4,0,0,0,.18.1.93.93,0,0,0,.25,0l.25,0,.33-.06h.16v.51a1.31,1.31,0,0,1-.3.18,3.46,3.46,0,0,1-.43.19l-.51.16a2.2,2.2,0,0,1-.5.06,2.74,2.74,0,0,1-.59-.06,1.54,1.54,0,0,1-.47-.19.88.88,0,0,1-.3-.36,1.28,1.28,0,0,1-.11-.55h0a2.61,2.61,0,0,1-.55.62,2.39,2.39,0,0,1-.6.36,2.16,2.16,0,0,1-.58.15Zm1.08-1.1.31,0a1.24,1.24,0,0,0,.31-.1,1,1,0,0,0,.29-.18,1.11,1.11,0,0,0,.24-.28v-2a4.71,4.71,0,0,0-.88.08,1.84,1.84,0,0,0-.67.26,1.13,1.13,0,0,0-.43.44,1.33,1.33,0,0,0-.15.65,1.47,1.47,0,0,0,.09.55.85.85,0,0,0,.23.34.73.73,0,0,0,.31.19A1.4,1.4,0,0,0,77.7,86.72Z"/><path class="cls-3" d="M83.13,87.24l.75-.25a.66.66,0,0,0,.23-.15.4.4,0,0,0,.07-.24V78.74a.49.49,0,0,0-.09-.3.62.62,0,0,0-.31-.2L83.06,78v-.38l3-.52V86.6a.31.31,0,0,0,.09.24.61.61,0,0,0,.22.15l.67.25v.44h-4Z"/><path class="cls-3" d="M91.88,87.83a3.18,3.18,0,0,1-1.34-.27,2.77,2.77,0,0,1-1-.73,3.05,3.05,0,0,1-.6-1.09,4,4,0,0,1-.21-1.31,4.62,4.62,0,0,1,.11-1,3.77,3.77,0,0,1,.88-1.68,3.24,3.24,0,0,1,.76-.61,3.45,3.45,0,0,1,1-.39,4.24,4.24,0,0,1,1.16-.14,3.56,3.56,0,0,1,.68,0,5.07,5.07,0,0,1,.56.14l.43.17.32.17-.26,1.45h-.27c-.17-.12-.35-.25-.55-.37a5.42,5.42,0,0,0-1.18-.59,1.79,1.79,0,0,0-.54-.09.46.46,0,0,0-.29.1,1.59,1.59,0,0,0-.31.32,1.5,1.5,0,0,0-.16.29,3.45,3.45,0,0,0-.14.45,4,4,0,0,0-.11.58,5.77,5.77,0,0,0,.08,1.85,2.36,2.36,0,0,0,.37.85,1.62,1.62,0,0,0,.64.52,2.3,2.3,0,0,0,1,.18,1.83,1.83,0,0,0,.53-.07,2.08,2.08,0,0,0,.46-.16,1.79,1.79,0,0,0,.39-.21l.32-.19h.19v.59a4.91,4.91,0,0,1-.53.42,4.84,4.84,0,0,1-.67.38,3.7,3.7,0,0,1-.77.28A3.6,3.6,0,0,1,91.88,87.83Z"/><path class="cls-3" d="M99.24,87.82a2.74,2.74,0,0,1-.87-.14,1.78,1.78,0,0,1-.69-.43,2,2,0,0,1-.45-.75,3.23,3.23,0,0,1-.16-1.1V82.27A.44.44,0,0,0,97,82a.71.71,0,0,0-.31-.19L96,81.55v-.38L99,80.65v4.08a6.54,6.54,0,0,0,0,.81,2.19,2.19,0,0,0,.15.6.93.93,0,0,0,.35.36,1.32,1.32,0,0,0,.61.12l.36,0a2.09,2.09,0,0,0,.34-.08,1.1,1.1,0,0,0,.32-.17,1.08,1.08,0,0,0,.27-.29V82.27a.37.37,0,0,0-.1-.27.81.81,0,0,0-.31-.17l-.68-.23v-.38l3-.57v5.53a.48.48,0,0,0,.09.29.65.65,0,0,0,.32.19l.67.21v.38l-2.84.57h-.12v-1.2h0a3.18,3.18,0,0,1-.55.63,2.63,2.63,0,0,1-.57.37,2.36,2.36,0,0,1-.56.16A3.44,3.44,0,0,1,99.24,87.82Z"/><path class="cls-3" d="M105.77,87.24l.75-.25a.57.57,0,0,0,.23-.15.4.4,0,0,0,.07-.24V78.74a.49.49,0,0,0-.09-.3.62.62,0,0,0-.31-.2L105.7,78v-.38l3-.52V86.6a.31.31,0,0,0,.09.24.71.71,0,0,0,.22.15l.67.25v.44h-4Z"/><path class="cls-3" d="M113.27,87.82a1.81,1.81,0,0,1-.78-.16,1.67,1.67,0,0,1-.59-.42,1.84,1.84,0,0,1-.38-.61,1.91,1.91,0,0,1-.14-.71,2,2,0,0,1,.15-.79,2.11,2.11,0,0,1,.41-.61,2.64,2.64,0,0,1,.58-.45,3.55,3.55,0,0,1,.69-.31,4.74,4.74,0,0,1,.72-.18,5.45,5.45,0,0,1,.68,0h.19l.26,0,.26,0h.2v-1a3,3,0,0,0,0-.57.76.76,0,0,0-.15-.35.5.5,0,0,0-.27-.18,1.25,1.25,0,0,0-.42-.06,1.71,1.71,0,0,0-.6.13,6,6,0,0,0-.62.31c-.21.12-.4.25-.59.38s-.34.25-.48.34h-.25l-.25-1.44.55-.21a5.52,5.52,0,0,1,.65-.2,5.25,5.25,0,0,1,.73-.14,5.39,5.39,0,0,1,.82,0,4.43,4.43,0,0,1,1,.11,2.53,2.53,0,0,1,.91.37,1.9,1.9,0,0,1,.66.69,2,2,0,0,1,.25,1.07l0,3.5a.42.42,0,0,0,0,.2.36.36,0,0,0,.11.14.4.4,0,0,0,.18.1.87.87,0,0,0,.25,0l.25,0,.33-.06h.15v.51a1.31,1.31,0,0,1-.3.18,3.46,3.46,0,0,1-.43.19l-.5.16a2.27,2.27,0,0,1-.5.06,2.77,2.77,0,0,1-.6-.06,1.48,1.48,0,0,1-.46-.19,1,1,0,0,1-.31-.36,1.29,1.29,0,0,1-.1-.55h0a2.41,2.41,0,0,1-.55.62,2.18,2.18,0,0,1-.59.36,2.26,2.26,0,0,1-.58.15Zm1.09-1.1.3,0a1.12,1.12,0,0,0,.31-.1,1,1,0,0,0,.29-.18,1.11,1.11,0,0,0,.24-.28l0-2a4.82,4.82,0,0,0-.89.08,1.91,1.91,0,0,0-.67.26,1.13,1.13,0,0,0-.43.44,1.33,1.33,0,0,0-.15.65,1.47,1.47,0,0,0,.09.55,1,1,0,0,0,.23.34.7.7,0,0,0,.32.19A1.33,1.33,0,0,0,114.36,86.72Z"/><path class="cls-3" d="M122.83,87.81a3.15,3.15,0,0,1-.83-.1,2.31,2.31,0,0,1-.68-.28,1.48,1.48,0,0,1-.44-.46,1.08,1.08,0,0,1-.16-.6V81.64h-1.11v-.53a5.16,5.16,0,0,0,.5-.13,1.42,1.42,0,0,0,.39-.19,1,1,0,0,0,.26-.32,1.49,1.49,0,0,0,.11-.52l.06-.88,1.71-.27v2h2.43l-.19.82h-2.24v4.3a.55.55,0,0,0,.15.38,1.13,1.13,0,0,0,.34.27,1.54,1.54,0,0,0,.42.17,2.08,2.08,0,0,0,.39,0h.24a.91.91,0,0,0,.23,0l.21,0,.18,0H125v.5l-.32.17a3.46,3.46,0,0,1-.5.2,4.58,4.58,0,0,1-.62.18A3.29,3.29,0,0,1,122.83,87.81Z"/><path class="cls-3" d="M129.89,87.87a4,4,0,0,1-1.47-.26,3.23,3.23,0,0,1-1.11-.72,3.26,3.26,0,0,1-.7-1.15,4.5,4.5,0,0,1,0-2.93,3.52,3.52,0,0,1,.71-1.16,3.3,3.3,0,0,1,1.14-.78,3.82,3.82,0,0,1,1.52-.28,3.9,3.9,0,0,1,1.6.3,3.1,3.1,0,0,1,1.1.8,3.34,3.34,0,0,1,.63,1.16,4.41,4.41,0,0,1,.21,1.37,4.19,4.19,0,0,1-.24,1.42,3.34,3.34,0,0,1-.7,1.16,3.3,3.3,0,0,1-1.14.78A3.92,3.92,0,0,1,129.89,87.87Zm.1-.76a1,1,0,0,0,.73-.26,1.88,1.88,0,0,0,.45-.67,3.12,3.12,0,0,0,.21-.9,7.5,7.5,0,0,0,.06-.93,8,8,0,0,0-.08-1.1,3.74,3.74,0,0,0-.25-1,2.07,2.07,0,0,0-.48-.69,1.12,1.12,0,0,0-.75-.26,1.07,1.07,0,0,0-.73.26,1.72,1.72,0,0,0-.43.66,3.52,3.52,0,0,0-.22.89,7.75,7.75,0,0,0-.06.93,9.47,9.47,0,0,0,.06,1,3.7,3.7,0,0,0,.24,1,2,2,0,0,0,.47.73A1.08,1.08,0,0,0,130,87.11Z"/><path class="cls-3" d="M135.25,87.24,136,87a.41.41,0,0,0,.21-.14.33.33,0,0,0,.09-.25V82.33a.58.58,0,0,0,0-.19.27.27,0,0,0-.07-.14l-.12-.12-.19-.09-.69-.24v-.38l2.94-.52v1.54h0c.12-.2.25-.4.38-.59a3.21,3.21,0,0,1,.46-.51,2,2,0,0,1,.54-.36,1.52,1.52,0,0,1,.69-.14h.35l.28.05.25.08.24.09V83h-.71l-.29-.53a.3.3,0,0,0-.11-.12l-.17-.1-.21-.07-.22,0-.38,0a1.61,1.61,0,0,0-.36.1,1.28,1.28,0,0,0-.34.19,2.15,2.15,0,0,0-.33.34V86.6a.4.4,0,0,0,.08.26.38.38,0,0,0,.23.13l.88.25v.44h-4.16Z"/><path class="cls-4" d="M129.57,28.28c.34-.48.23-.41,1.26-.33s.53.26,1.19-.34,1.64-1.2,2.09-1.62c-.29-.39-2.27-1.45-2.79-1.95l.38-.3c.23-.17.17-.16.51,0,.74.24,3.1,1,3.56,1.06a10.55,10.55,0,0,1,2.31-1.5c.25,0,.65-.06.64.26,0,.77-1.27,1.46-2,2-.31.23-.22.19-.21.58s.06,3.47,0,3.65-.47.35-.55.42a7.35,7.35,0,0,1-.28-.83l-.51-1.63a4.28,4.28,0,0,0-.27-.81c-.34.27-.7.52-1.06.8-1.79,1.39-1.57.67-1.8,1.85-.14.65-.06,1-.67,1.05a2.5,2.5,0,0,0-1.72-2.32"/><path class="cls-2" d="M128.85,30.71a.15.15,0,0,1-.14-.07.16.16,0,0,1,0-.23l1.45-1.05a.18.18,0,0,1,.24,0,.16.16,0,0,1,0,.24l-1.46,1a.16.16,0,0,1-.09,0"/><path class="cls-2" d="M127.81,30.71a.15.15,0,0,1-.14-.07.16.16,0,0,1,0-.23l1.46-1.05a.17.17,0,0,1,.23,0,.16.16,0,0,1,0,.24l-1.45,1a.19.19,0,0,1-.1,0"/><path class="cls-2" d="M128.44,31.81a.19.19,0,0,1-.14-.07.17.17,0,0,1,0-.24l1.46-1a.16.16,0,0,1,.23,0,.16.16,0,0,1,0,.23l-1.46,1.05a.19.19,0,0,1-.1,0"/><path class="cls-5" d="M67.72,21.59h-.88a7.55,7.55,0,0,1-.89-.06c.59,0,1.18,0,1.77.07"/><g class="cls-6"><rect class="cls-7" x="50.27" y="17.83" width="35.55" height="38.95" transform="translate(-9.51 34.63) rotate(-26.76)"/></g><path class="cls-2" d="M119.13,73.55H105.41c-.67,0-1.32,0-2,0-.16,0-1.36-.14-1.81-.21A26,26,0,0,1,80,53.09a28.14,28.14,0,0,1-.6-5.38,15.51,15.51,0,0,0-.21-2.39v0c-.13-1.1-2.57-21.49-12.34-23.69H67c.43,0,.83,0,1.23.05a22.57,22.57,0,0,1,6.48,1.49A26.14,26.14,0,0,1,90.27,38.83a28.13,28.13,0,0,1,1.54,8.65,13.25,13.25,0,0,0,.08,1.73,15.44,15.44,0,0,0,1.78,5.27,13.72,13.72,0,0,0,6.42,5.62A14.13,14.13,0,0,0,105,61.19h.58a28.48,28.48,0,0,0,13.59,12.36"/></g></g></svg>