<svg 
 xmlns="http://www.w3.org/2000/svg"
 xmlns:xlink="http://www.w3.org/1999/xlink"
 width="753px" height="237px">
<path fill-rule="evenodd"  fill="#efefef"
 d="M648.437,235.038 L648.437,66.045 L701.426,66.045 L701.426,194.938 L752.505,194.938 L752.505,235.038 L648.437,235.038 ZM515.720,66.045 L628.381,66.045 L628.381,108.294 L568.709,108.294 L568.709,129.060 L621.221,129.060 L621.221,168.921 L568.709,168.921 L568.709,192.790 L628.381,192.790 L628.381,235.038 L515.720,235.038 L515.720,66.045 ZM456.519,235.038 L403.530,235.038 L403.530,108.055 L359.134,108.055 L359.134,66.045 L501.393,66.045 L501.393,108.055 L456.519,108.055 L456.519,235.038 ZM262.936,236.709 C214.959,236.709 175.814,200.666 175.814,149.826 C175.814,98.985 214.959,63.181 262.936,63.181 C311.151,63.181 349.580,98.985 349.580,149.826 C349.580,200.666 310.674,236.709 262.936,236.709 ZM262.936,112.113 C241.215,112.113 229.758,126.911 229.758,149.826 C229.758,172.262 241.215,187.300 262.936,187.300 C284.179,187.300 295.875,172.262 295.875,149.826 C295.875,126.911 284.179,112.113 262.936,112.113 ZM150.108,50.444 L135.735,34.266 L135.735,50.444 L129.652,50.444 L129.652,0.976 L135.735,0.976 L135.735,30.055 L149.840,13.811 L158.330,13.811 L141.083,32.060 L158.397,50.444 L150.108,50.444 ZM102.854,51.045 C92.493,51.045 84.605,43.692 84.605,32.060 C84.605,20.496 92.760,13.209 103.121,13.209 C113.550,13.209 121.638,20.496 121.638,32.060 C121.638,43.692 113.282,51.045 102.854,51.045 ZM103.055,18.490 C96.637,18.490 90.821,22.835 90.821,32.060 C90.821,41.352 96.504,45.697 102.854,45.697 C109.205,45.697 115.421,41.352 115.421,32.060 C115.421,22.835 109.338,18.490 103.055,18.490 ZM60.079,51.045 C49.718,51.045 41.830,43.692 41.830,32.060 C41.830,20.496 49.985,13.209 60.347,13.209 C70.775,13.209 78.863,20.496 78.863,32.060 C78.863,43.692 70.507,51.045 60.079,51.045 ZM60.280,18.490 C53.862,18.490 48.047,22.835 48.047,32.060 C48.047,41.352 53.729,45.697 60.079,45.697 C66.430,45.697 72.647,41.352 72.647,32.060 C72.647,22.835 66.563,18.490 60.280,18.490 ZM35.688,37.943 C35.688,44.962 30.139,50.444 20.513,50.444 L3.133,50.444 L3.133,3.851 L19.845,3.851 C29.671,3.851 34.618,9.198 34.618,15.683 C34.618,21.565 30.941,24.975 26.463,26.445 C31.543,27.314 35.688,32.194 35.688,37.943 ZM28.401,16.418 C28.401,11.806 25.259,8.864 19.310,8.864 L9.216,8.864 L9.216,23.972 L19.444,23.972 C25.126,23.972 28.401,21.164 28.401,16.418 ZM19.778,28.985 L9.216,28.985 L9.216,45.430 L19.978,45.430 C25.995,45.430 29.604,42.422 29.604,37.341 C29.604,32.194 25.727,28.985 19.778,28.985 ZM53.361,126.911 L103.725,126.911 L103.725,66.045 L156.714,66.045 L156.714,235.038 L103.725,235.038 L103.725,169.159 L53.361,169.159 L53.361,235.038 L0.372,235.038 L0.372,66.045 L53.361,66.045 L53.361,126.911 Z"/>
</svg>