<svg 
 xmlns="http://www.w3.org/2000/svg"
 xmlns:xlink="http://www.w3.org/1999/xlink"
 width="707px" height="189px">
<path fill-rule="evenodd"  fill="#efefef"
 d="M706.741,152.198 L706.741,187.094 L613.685,187.094 L613.685,47.510 L706.741,47.510 L706.741,82.406 L657.453,82.406 L657.453,99.558 L700.826,99.558 L700.826,132.483 L657.453,132.483 L657.453,152.198 L706.741,152.198 ZM545.071,188.474 C513.133,188.474 488.095,173.687 486.123,142.340 L532.651,142.340 C533.439,152.592 538.960,154.366 543.297,154.366 C547.634,154.366 551.775,152.395 551.775,147.466 C551.577,128.540 485.729,135.440 486.517,87.729 C486.517,59.734 510.176,45.144 539.945,45.144 C573.658,45.144 595.345,61.311 596.528,90.292 L549.409,90.292 C549.014,81.815 544.480,79.252 539.748,79.252 C536.200,79.252 533.439,81.617 533.439,86.349 C533.439,103.896 598.302,100.938 598.302,143.917 C598.302,169.547 578.784,188.474 545.071,188.474 ZM426.977,47.510 L470.744,47.510 L470.744,187.094 L426.977,187.094 L426.977,47.510 ZM344.957,188.474 C310.061,188.474 284.431,167.378 284.431,126.174 L284.431,47.510 L328.002,47.510 L328.002,126.174 C328.002,138.200 332.733,147.072 345.943,147.072 C359.152,147.072 364.475,138.200 364.475,126.174 L364.475,47.510 L408.045,47.510 L408.045,126.174 C408.045,167.378 379.853,188.474 344.957,188.474 ZM223.309,187.094 L197.088,137.017 L196.891,137.017 L196.891,187.094 L153.123,187.094 L153.123,47.510 L218.183,47.510 C253.276,47.510 271.217,67.620 271.217,93.249 C271.217,111.585 260.965,127.160 241.053,133.666 L271.414,187.094 L223.309,187.094 ZM214.240,84.180 L196.891,84.180 L196.891,107.839 L214.240,107.839 C222.521,107.839 226.858,104.290 226.858,96.010 C226.858,88.912 222.521,84.180 214.240,84.180 ZM68.935,147.663 C78.793,147.663 87.073,142.340 91.213,133.074 L137.347,133.074 C131.629,165.998 106.591,188.079 69.724,188.079 C26.942,188.079 0.721,158.704 0.721,117.105 C0.721,75.506 26.942,46.130 69.724,46.130 C106.591,46.130 131.629,68.211 137.347,101.135 L91.213,101.135 C87.073,91.869 78.793,86.546 68.935,86.546 C54.149,86.546 45.080,98.572 45.080,117.105 C45.080,135.637 54.149,147.663 68.935,147.663 ZM107.399,34.623 L97.507,23.489 L97.507,34.623 L93.320,34.623 L93.320,0.577 L97.507,0.577 L97.507,20.591 L107.215,9.411 L113.058,9.411 L101.188,21.971 L113.104,34.623 L107.399,34.623 ZM74.874,35.037 C67.742,35.037 62.313,29.976 62.313,21.971 C62.313,14.011 67.926,8.996 75.058,8.996 C82.235,8.996 87.802,14.011 87.802,21.971 C87.802,29.976 82.051,35.037 74.874,35.037 ZM75.012,12.631 C70.595,12.631 66.592,15.622 66.592,21.971 C66.592,28.366 70.503,31.357 74.874,31.357 C79.244,31.357 83.523,28.366 83.523,21.971 C83.523,15.622 79.337,12.631 75.012,12.631 ZM45.431,35.037 C38.300,35.037 32.871,29.976 32.871,21.971 C32.871,14.011 38.484,8.996 45.615,8.996 C52.793,8.996 58.360,14.011 58.360,21.971 C58.360,29.976 52.609,35.037 45.431,35.037 ZM45.569,12.631 C41.152,12.631 37.150,15.622 37.150,21.971 C37.150,28.366 41.060,31.357 45.431,31.357 C49.802,31.357 54.081,28.366 54.081,21.971 C54.081,15.622 49.894,12.631 45.569,12.631 ZM28.641,26.020 C28.641,30.851 24.823,34.623 18.197,34.623 L6.235,34.623 L6.235,2.555 L17.737,2.555 C24.501,2.555 27.905,6.236 27.905,10.699 C27.905,14.748 25.375,17.094 22.292,18.106 C25.789,18.704 28.641,22.063 28.641,26.020 ZM23.626,11.205 C23.626,8.030 21.464,6.006 17.369,6.006 L10.422,6.006 L10.422,16.404 L17.461,16.404 C21.372,16.404 23.626,14.472 23.626,11.205 ZM17.691,19.855 L10.422,19.855 L10.422,31.173 L17.829,31.173 C21.970,31.173 24.454,29.102 24.454,25.606 C24.454,22.063 21.786,19.855 17.691,19.855 Z"/>
</svg>