<svg 
 xmlns="http://www.w3.org/2000/svg"
 xmlns:xlink="http://www.w3.org/1999/xlink"
 width="684px" height="189px">
<path fill-rule="evenodd"  fill="#efefef"
 d="M646.945,82.209 L646.945,187.094 L603.178,187.094 L603.178,82.209 L566.507,82.209 L566.507,47.510 L684.010,47.510 L684.010,82.209 L646.945,82.209 ZM510.907,132.680 L469.308,132.680 L469.308,187.094 L425.540,187.094 L425.540,47.510 L469.308,47.510 L469.308,97.784 L510.907,97.784 L510.907,47.510 L554.674,47.510 L554.674,187.094 L510.907,187.094 L510.907,132.680 ZM344.307,188.079 C300.343,188.079 273.333,158.704 273.333,117.105 C273.333,75.506 300.145,46.130 343.913,46.130 C380.978,46.130 404.833,65.451 408.973,95.221 L362.840,95.221 C359.488,89.898 353.179,86.546 344.110,86.546 C327.155,86.546 317.692,98.572 317.692,117.105 C317.692,138.791 327.550,149.635 349.039,149.635 C358.897,149.635 366.980,146.086 373.486,137.411 L338.590,137.411 L338.590,106.459 L409.762,106.459 L409.762,150.226 C400.101,166.984 380.386,188.079 344.307,188.079 ZM213.792,47.510 L257.560,47.510 L257.560,187.094 L213.792,187.094 L213.792,47.510 ZM114.030,47.510 L157.798,47.510 L157.798,153.972 L199.988,153.972 L199.988,187.094 L114.030,187.094 L114.030,47.510 ZM103.399,34.623 L93.507,23.489 L93.507,34.623 L89.320,34.623 L89.320,0.577 L93.507,0.577 L93.507,20.591 L103.215,9.411 L109.058,9.411 L97.188,21.971 L109.104,34.623 L103.399,34.623 ZM70.874,35.037 C63.742,35.037 58.313,29.976 58.313,21.971 C58.313,14.011 63.926,8.996 71.058,8.996 C78.235,8.996 83.802,14.011 83.802,21.971 C83.802,29.976 78.051,35.037 70.874,35.037 ZM71.012,12.631 C66.595,12.631 62.592,15.622 62.592,21.971 C62.592,28.366 66.503,31.357 70.874,31.357 C75.244,31.357 79.523,28.366 79.523,21.971 C79.523,15.622 75.337,12.631 71.012,12.631 ZM41.431,35.037 C34.300,35.037 28.871,29.976 28.871,21.971 C28.871,14.011 34.484,8.996 41.615,8.996 C48.793,8.996 54.360,14.011 54.360,21.971 C54.360,29.976 48.609,35.037 41.431,35.037 ZM41.569,12.631 C37.152,12.631 33.150,15.622 33.150,21.971 C33.150,28.366 37.060,31.357 41.431,31.357 C45.802,31.357 50.081,28.366 50.081,21.971 C50.081,15.622 45.894,12.631 41.569,12.631 ZM24.641,26.020 C24.641,30.851 20.823,34.623 14.197,34.623 L2.235,34.623 L2.235,2.555 L13.737,2.555 C20.501,2.555 23.905,6.236 23.905,10.699 C23.905,14.748 21.375,17.094 18.292,18.106 C21.789,18.704 24.641,22.063 24.641,26.020 ZM19.626,11.205 C19.626,8.030 17.464,6.006 13.369,6.006 L6.422,6.006 L6.422,16.404 L13.461,16.404 C17.372,16.404 19.626,14.472 19.626,11.205 ZM13.691,19.855 L6.422,19.855 L6.422,31.173 L13.829,31.173 C17.970,31.173 20.454,29.102 20.454,25.606 C20.454,22.063 17.786,19.855 13.691,19.855 ZM99.239,82.209 L44.431,82.209 L44.431,101.530 L83.862,101.530 L83.862,134.454 L44.431,134.454 L44.431,187.094 L0.664,187.094 L0.664,47.510 L99.239,47.510 L99.239,82.209 Z"/>
</svg>