<svg 
 xmlns="http://www.w3.org/2000/svg"
 xmlns:xlink="http://www.w3.org/1999/xlink"
 width="649px" height="227px">
<path fill-rule="evenodd"  fill="#efefef"
 d="M544.603,226.038 L544.603,57.045 L597.592,57.045 L597.592,185.938 L648.672,185.938 L648.672,226.038 L544.603,226.038 ZM468.455,200.498 L412.124,200.498 L403.770,226.038 L348.155,226.038 L409.976,57.045 L471.080,57.045 L532.662,226.038 L476.809,226.038 L468.455,200.498 ZM440.289,113.615 L425.013,160.637 L455.565,160.637 L440.289,113.615 ZM227.373,57.045 L340.034,57.045 L340.034,99.294 L280.362,99.294 L280.362,120.060 L332.873,120.060 L332.873,159.921 L280.362,159.921 L280.362,183.790 L340.034,183.790 L340.034,226.038 L227.373,226.038 L227.373,57.045 ZM150.747,141.780 L124.729,226.038 L79.378,226.038 L53.361,141.780 L53.361,226.038 L0.372,226.038 L0.372,57.045 L65.296,57.045 L102.531,158.489 L138.812,57.045 L203.497,57.045 L203.497,226.038 L150.747,226.038 L150.747,141.780 ZM175.712,28.075 C176.102,34.258 180.447,37.656 185.627,37.656 C190.194,37.656 193.091,35.316 194.205,32.030 L199.664,32.030 C198.104,37.600 193.202,41.945 185.627,41.945 C176.937,41.945 170.532,35.818 170.532,26.125 C170.532,16.489 176.714,10.417 185.627,10.417 C194.484,10.417 200.277,16.656 200.277,25.011 C200.277,26.125 200.221,27.017 200.109,28.075 L175.712,28.075 ZM185.404,14.706 C180.447,14.706 176.325,17.993 175.768,23.953 L195.041,23.953 C195.096,17.993 190.640,14.706 185.404,14.706 ZM158.727,35.706 C156.889,39.104 152.934,41.945 147.364,41.945 C139.175,41.945 132.881,35.539 132.881,26.070 C132.881,16.545 139.175,10.417 147.419,10.417 C152.210,10.417 156.610,12.868 158.727,16.377 L158.727,0.224 L163.851,0.224 L163.851,41.444 L158.727,41.444 L158.727,35.706 ZM148.366,14.818 C142.796,14.818 138.061,18.884 138.061,26.070 C138.061,33.255 142.796,37.489 148.366,37.489 C153.936,37.489 158.727,33.311 158.727,26.125 C158.727,19.051 153.936,14.818 148.366,14.818 ZM121.131,36.932 C119.182,40.107 115.450,41.889 111.384,41.889 C104.365,41.889 98.851,37.544 98.851,28.799 L98.851,10.919 L103.864,10.919 L103.864,28.131 C103.864,34.314 107.262,37.489 112.386,37.489 C117.622,37.489 121.131,34.258 121.131,27.685 L121.131,10.919 L126.200,10.919 L126.200,41.444 L121.131,41.444 L121.131,36.932 ZM85.428,0.224 L90.497,0.224 L90.497,41.444 L85.428,41.444 L85.428,0.224 ZM64.600,37.656 C69.111,37.656 72.119,35.483 73.233,31.640 L78.692,31.640 C77.133,37.711 72.175,41.945 64.600,41.945 C55.910,41.945 49.727,35.818 49.727,26.125 C49.727,16.545 55.910,10.417 64.600,10.417 C72.175,10.417 77.133,14.316 78.692,20.722 L73.233,20.722 C72.175,17.046 69.111,14.706 64.600,14.706 C59.029,14.706 54.907,18.661 54.907,26.125 C54.907,33.701 59.029,37.656 64.600,37.656 ZM38.312,24.176 C38.312,17.937 34.914,14.762 29.789,14.762 C24.609,14.762 21.044,17.993 21.044,24.566 L21.044,41.444 L15.975,41.444 L15.975,10.919 L21.044,10.919 L21.044,15.263 C23.049,12.088 26.726,10.362 30.848,10.362 C37.922,10.362 43.325,14.706 43.325,23.452 L43.325,41.444 L38.312,41.444 L38.312,24.176 ZM2.275,2.619 L7.343,2.619 L7.343,41.444 L2.275,41.444 L2.275,2.619 Z"/>
</svg>